HIERARCHY
ROOT Hips
{
	OFFSET -351.999878 -572.954773 89.312325
	CHANNELS 6 Xposition Yposition Zposition Zrotation Yrotation Xrotation
	JOINT Spine
	{
		OFFSET 0.000000 2.080078 8.814247
		CHANNELS 6 Xposition Yposition Zposition Zrotation Yrotation Xrotation
		JOINT Spine1
		{
			OFFSET 0.000000 0.000000 8.844139
			CHANNELS 6 Xposition Yposition Zposition Zrotation Yrotation Xrotation
			JOINT Spine2
			{
				OFFSET 0.000000 0.000000 11.682266
				CHANNELS 6 Xposition Yposition Zposition Zrotation Yrotation Xrotation
				JOINT Spine3
				{
					OFFSET 0.000000 0.000000 11.746696
					CHANNELS 6 Xposition Yposition Zposition Zrotation Yrotation Xrotation
					JOINT Neck
					{
						OFFSET 0.000000 0.000000 17.658264
						CHANNELS 6 Xposition Yposition Zposition Zrotation Yrotation Xrotation
						JOINT Neck1
						{
							OFFSET 0.000000 0.000000 5.101517
							CHANNELS 6 Xposition Yposition Zposition Zrotation Yrotation Xrotation
							JOINT Head
							{
								OFFSET 0.000000 0.000000 5.101517
								CHANNELS 6 Xposition Yposition Zposition Zrotation Yrotation Xrotation
								JOINT HeadEnd
								{
									OFFSET 0.000000 0.000000 11.655090
									CHANNELS 6 Xposition Yposition Zposition Zrotation Yrotation Xrotation
									End Site
									{
										OFFSET 0.000000 0.000000 0.100006
									}
								}
							}
						}
					}
					JOINT RightShoulder
					{
						OFFSET -2.625397 0.000000 11.175217
						CHANNELS 6 Xposition Yposition Zposition Zrotation Yrotation Xrotation
						JOINT RightArm
						{
							OFFSET 0.000000 0.000000 10.434708
							CHANNELS 6 Xposition Yposition Zposition Zrotation Yrotation Xrotation
							JOINT RightForeArm
							{
								OFFSET 0.000000 0.000000 29.628418
								CHANNELS 6 Xposition Yposition Zposition Zrotation Yrotation Xrotation
								JOINT RightHand
								{
									OFFSET 0.000000 0.000000 22.857605
									CHANNELS 6 Xposition Yposition Zposition Zrotation Yrotation Xrotation
									JOINT RightHandThumb1
									{
										OFFSET -2.867310 -2.944275 3.959564
										CHANNELS 6 Xposition Yposition Zposition Zrotation Yrotation Xrotation
										JOINT RightHandThumb2
										{
											OFFSET 0.000000 0.000000 3.350403
											CHANNELS 6 Xposition Yposition Zposition Zrotation Yrotation Xrotation
											JOINT RightHandThumb3
											{
												OFFSET 0.000000 0.000000 3.756516
												CHANNELS 6 Xposition Yposition Zposition Zrotation Yrotation Xrotation
												JOINT RightHandThumb4
												{
													OFFSET 0.000000 0.000000 3.147339
													CHANNELS 6 Xposition Yposition Zposition Zrotation Yrotation Xrotation
													End Site
													{
														OFFSET 0.000000 0.000000 0.100006
													}
												}
											}
										}
									}
									JOINT RightHandIndex1
									{
										OFFSET -0.086761 -2.345276 10.030899
										CHANNELS 6 Xposition Yposition Zposition Zrotation Yrotation Xrotation
										JOINT RightHandIndex2
										{
											OFFSET 0.000000 0.000000 4.061096
											CHANNELS 6 Xposition Yposition Zposition Zrotation Yrotation Xrotation
											JOINT RightHandIndex3
											{
												OFFSET 0.000000 0.000000 3.248871
												CHANNELS 6 Xposition Yposition Zposition Zrotation Yrotation Xrotation
												JOINT RightHandIndex4
												{
													OFFSET 0.000000 0.000000 2.639709
													CHANNELS 6 Xposition Yposition Zposition Zrotation Yrotation Xrotation
													End Site
													{
														OFFSET 0.000000 0.000000 0.100006
													}
												}
											}
										}
									}
									JOINT RightHandMiddle1
									{
										OFFSET 0.104095 -0.006775 9.502945
										CHANNELS 6 Xposition Yposition Zposition Zrotation Yrotation Xrotation
										JOINT RightHandMiddle2
										{
											OFFSET 0.000000 0.000000 4.568726
											CHANNELS 6 Xposition Yposition Zposition Zrotation Yrotation Xrotation
											JOINT RightHandMiddle3
											{
												OFFSET 0.000000 0.000000 3.654984
												CHANNELS 6 Xposition Yposition Zposition Zrotation Yrotation Xrotation
												JOINT RightHandMiddle4
												{
													OFFSET 0.000000 0.000000 2.741241
													CHANNELS 6 Xposition Yposition Zposition Zrotation Yrotation Xrotation
													End Site
													{
														OFFSET 0.000000 0.000000 0.100006
													}
												}
											}
										}
									}
									JOINT RightHandRing1
									{
										OFFSET 0.086761 2.267456 8.921707
										CHANNELS 6 Xposition Yposition Zposition Zrotation Yrotation Xrotation
										JOINT RightHandRing2
										{
											OFFSET 0.000000 0.000000 4.061096
											CHANNELS 6 Xposition Yposition Zposition Zrotation Yrotation Xrotation
											JOINT RightHandRing3
											{
												OFFSET 0.000000 0.000000 3.654984
												CHANNELS 6 Xposition Yposition Zposition Zrotation Yrotation Xrotation
												JOINT RightHandRing4
												{
													OFFSET 0.000000 0.000000 2.741241
													CHANNELS 6 Xposition Yposition Zposition Zrotation Yrotation Xrotation
													End Site
													{
														OFFSET 0.000000 0.000000 0.100006
													}
												}
											}
										}
									}
									JOINT RightHandPinky1
									{
										OFFSET -0.173492 4.467224 7.976990
										CHANNELS 6 Xposition Yposition Zposition Zrotation Yrotation Xrotation
										JOINT RightHandPinky2
										{
											OFFSET 0.000000 0.000000 3.350403
											CHANNELS 6 Xposition Yposition Zposition Zrotation Yrotation Xrotation
											JOINT RightHandPinky3
											{
												OFFSET 0.000000 0.000000 2.842758
												CHANNELS 6 Xposition Yposition Zposition Zrotation Yrotation Xrotation
												JOINT RightHandPinky4
												{
													OFFSET 0.000000 0.000000 2.639709
													CHANNELS 6 Xposition Yposition Zposition Zrotation Yrotation Xrotation
													End Site
													{
														OFFSET 0.000000 0.000000 0.100006
													}
												}
											}
										}
									}
									JOINT RightForeArmEnd
									{
										OFFSET 0.000000 0.000000 0.000000
										CHANNELS 6 Xposition Yposition Zposition Zrotation Yrotation Xrotation
										End Site
										{
											OFFSET 0.000000 0.000000 0.100006
										}
									}
								}
								JOINT RightArmEnd
								{
									OFFSET 0.000000 0.000000 0.000000
									CHANNELS 6 Xposition Yposition Zposition Zrotation Yrotation Xrotation
									End Site
									{
										OFFSET 0.000000 0.000000 0.100006
									}
								}
							}
						}
					}
					JOINT LeftShoulder
					{
						OFFSET 2.625397 0.000000 11.175217
						CHANNELS 6 Xposition Yposition Zposition Zrotation Yrotation Xrotation
						JOINT LeftArm
						{
							OFFSET 0.000000 0.000000 10.813629
							CHANNELS 6 Xposition Yposition Zposition Zrotation Yrotation Xrotation
							JOINT LeftForeArm
							{
								OFFSET 0.000000 0.000000 28.724777
								CHANNELS 6 Xposition Yposition Zposition Zrotation Yrotation Xrotation
								JOINT LeftHand
								{
									OFFSET 0.644379 0.328857 25.716171
									CHANNELS 6 Xposition Yposition Zposition Zrotation Yrotation Xrotation
									JOINT LeftHandThumb1
									{
										OFFSET 2.867310 -2.944275 3.959564
										CHANNELS 6 Xposition Yposition Zposition Zrotation Yrotation Xrotation
										JOINT LeftHandThumb2
										{
											OFFSET 0.000000 0.000000 3.350403
											CHANNELS 6 Xposition Yposition Zposition Zrotation Yrotation Xrotation
											JOINT LeftHandThumb3
											{
												OFFSET 0.000000 0.000000 3.756516
												CHANNELS 6 Xposition Yposition Zposition Zrotation Yrotation Xrotation
												JOINT LeftHandThumb4
												{
													OFFSET 0.000000 0.000000 3.100006
													CHANNELS 6 Xposition Yposition Zposition Zrotation Yrotation Xrotation
													End Site
													{
														OFFSET 0.000000 0.000000 0.100006
													}
												}
											}
										}
									}
									JOINT LeftHandIndex1
									{
										OFFSET 0.086761 -2.345276 10.030899
										CHANNELS 6 Xposition Yposition Zposition Zrotation Yrotation Xrotation
										JOINT LeftHandIndex2
										{
											OFFSET 0.000000 0.000000 4.061096
											CHANNELS 6 Xposition Yposition Zposition Zrotation Yrotation Xrotation
											JOINT LeftHandIndex3
											{
												OFFSET 0.000000 0.000000 3.248871
												CHANNELS 6 Xposition Yposition Zposition Zrotation Yrotation Xrotation
												JOINT LeftHandIndex4
												{
													OFFSET 0.000000 0.000000 2.639709
													CHANNELS 6 Xposition Yposition Zposition Zrotation Yrotation Xrotation
													End Site
													{
														OFFSET 0.000000 0.000000 0.100006
													}
												}
											}
										}
									}
									JOINT LeftHandMiddle1
									{
										OFFSET -0.104095 -0.006775 9.502945
										CHANNELS 6 Xposition Yposition Zposition Zrotation Yrotation Xrotation
										JOINT LeftHandMiddle2
										{
											OFFSET 0.000000 0.000000 4.568726
											CHANNELS 6 Xposition Yposition Zposition Zrotation Yrotation Xrotation
											JOINT LeftHandMiddle3
											{
												OFFSET 0.000000 0.000000 3.654984
												CHANNELS 6 Xposition Yposition Zposition Zrotation Yrotation Xrotation
												JOINT LeftHandMiddle4
												{
													OFFSET 0.000000 0.000000 2.741241
													CHANNELS 6 Xposition Yposition Zposition Zrotation Yrotation Xrotation
													End Site
													{
														OFFSET 0.000000 0.000000 0.100006
													}
												}
											}
										}
									}
									JOINT LeftHandRing1
									{
										OFFSET -0.086761 2.267456 8.921707
										CHANNELS 6 Xposition Yposition Zposition Zrotation Yrotation Xrotation
										JOINT LeftHandRing2
										{
											OFFSET 0.000000 0.000000 4.061096
											CHANNELS 6 Xposition Yposition Zposition Zrotation Yrotation Xrotation
											JOINT LeftHandRing3
											{
												OFFSET 0.000000 0.000000 3.654984
												CHANNELS 6 Xposition Yposition Zposition Zrotation Yrotation Xrotation
												JOINT LeftHandRing4
												{
													OFFSET 0.000000 0.000000 2.741241
													CHANNELS 6 Xposition Yposition Zposition Zrotation Yrotation Xrotation
													End Site
													{
														OFFSET 0.000000 0.000000 0.100006
													}
												}
											}
										}
									}
									JOINT LeftHandPinky1
									{
										OFFSET 0.173492 4.467224 7.976990
										CHANNELS 6 Xposition Yposition Zposition Zrotation Yrotation Xrotation
										JOINT LeftHandPinky2
										{
											OFFSET 0.000000 0.000000 3.350403
											CHANNELS 6 Xposition Yposition Zposition Zrotation Yrotation Xrotation
											JOINT LeftHandPinky3
											{
												OFFSET 0.000000 0.000000 2.842758
												CHANNELS 6 Xposition Yposition Zposition Zrotation Yrotation Xrotation
												JOINT LeftHandPinky4
												{
													OFFSET 0.000000 0.000000 2.639709
													CHANNELS 6 Xposition Yposition Zposition Zrotation Yrotation Xrotation
													End Site
													{
														OFFSET 0.000000 0.000000 0.100006
													}
												}
											}
										}
									}
									JOINT LeftForeArmEnd
									{
										OFFSET 0.000000 0.000000 0.000000
										CHANNELS 6 Xposition Yposition Zposition Zrotation Yrotation Xrotation
										End Site
										{
											OFFSET 0.000000 0.000000 0.100006
										}
									}
								}
								JOINT LeftArmEnd
								{
									OFFSET 0.000000 0.000000 0.000000
									CHANNELS 6 Xposition Yposition Zposition Zrotation Yrotation Xrotation
									End Site
									{
										OFFSET 0.000000 0.000000 0.100006
									}
								}
							}
						}
					}
				}
			}
		}
	}
	JOINT RightUpLeg
	{
		OFFSET -11.289948 0.000000 0.000000
		CHANNELS 6 Xposition Yposition Zposition Zrotation Yrotation Xrotation
		JOINT RightLeg
		{
			OFFSET 0.000000 0.000000 -38.200329
			CHANNELS 6 Xposition Yposition Zposition Zrotation Yrotation Xrotation
			JOINT RightFoot
			{
				OFFSET 0.000000 0.000000 -39.900856
				CHANNELS 6 Xposition Yposition Zposition Zrotation Yrotation Xrotation
				JOINT RightToeBase
				{
					OFFSET 0.000000 -15.261658 0.000002
					CHANNELS 6 Xposition Yposition Zposition Zrotation Yrotation Xrotation
					JOINT RightToeBaseEnd
					{
						OFFSET 0.000000 -7.370728 0.000000
						CHANNELS 6 Xposition Yposition Zposition Zrotation Yrotation Xrotation
						End Site
						{
							OFFSET 0.000000 0.000000 0.100000
						}
					}
				}
				JOINT RightLegEnd
				{
					OFFSET 0.000000 0.000000 0.000000
					CHANNELS 6 Xposition Yposition Zposition Zrotation Yrotation Xrotation
					End Site
					{
						OFFSET 0.000000 0.000000 0.100000
					}
				}
			}
			JOINT RightUpLegEnd
			{
				OFFSET 0.000000 0.000000 0.000000
				CHANNELS 6 Xposition Yposition Zposition Zrotation Yrotation Xrotation
				End Site
				{
					OFFSET 0.000000 0.000000 0.099998
				}
			}
		}
	}
	JOINT LeftUpLeg
	{
		OFFSET 11.315674 0.000000 0.000000
		CHANNELS 6 Xposition Yposition Zposition Zrotation Yrotation Xrotation
		JOINT LeftLeg
		{
			OFFSET 0.000000 0.000000 -38.200329
			CHANNELS 6 Xposition Yposition Zposition Zrotation Yrotation Xrotation
			JOINT LeftFoot
			{
				OFFSET 0.000000 0.000000 -39.900856
				CHANNELS 6 Xposition Yposition Zposition Zrotation Yrotation Xrotation
				JOINT LeftToeBase
				{
					OFFSET 0.000000 -15.261658 0.000002
					CHANNELS 6 Xposition Yposition Zposition Zrotation Yrotation Xrotation
					JOINT LeftToeBaseEnd
					{
						OFFSET 0.000000 -7.539978 0.000000
						CHANNELS 6 Xposition Yposition Zposition Zrotation Yrotation Xrotation
						End Site
						{
							OFFSET 0.000000 0.000000 0.100000
						}
					}
				}
				JOINT LeftLegEnd
				{
					OFFSET 0.000000 0.000000 0.000000
					CHANNELS 6 Xposition Yposition Zposition Zrotation Yrotation Xrotation
					End Site
					{
						OFFSET 0.000000 0.000000 0.100000
					}
				}
			}
			JOINT LeftUpLegEnd
			{
				OFFSET 0.000000 0.000000 0.000000
				CHANNELS 6 Xposition Yposition Zposition Zrotation Yrotation Xrotation
				End Site
				{
					OFFSET 0.000000 0.000000 0.099998
				}
			}
		}
	}
}
MOTION
Frames: 2
Frame Time: 0.016667
-9.343903 0.879517 87.454651 29.607494 0.783273 -8.717910 -0.000014 2.080054 8.814238 -0.254369 -5.125394 5.760705 0.000009 -0.000006 8.844147 1.082528 -3.193601 1.140912 -0.000002 0.000001 11.682267 7.732080 8.043086 0.913249 -0.000006 -0.000005 11.746699 2.616300 10.915950 -0.574258 -0.000025 -0.000015 17.658287 -22.513755 -6.138947 14.306223 0.000025 -0.000057 5.101490 -23.071162 6.386865 -2.718133 0.000007 -0.000006 5.101529 -3.815071 -1.279789 -18.253711 0.000004 -0.000067 11.655079 0.000000 0.000001 -0.000000 -2.625381 0.000011 11.175226 11.405492 -81.043637 -0.200170 0.000034 0.000011 10.434700 25.422995 -0.580576 20.834319 -0.000004 -0.000015 29.628468 26.079177 1.284784 77.244734 0.000042 0.000034 22.857605 -32.169716 9.246298 -15.795475 -2.867313 -2.944305 3.959518 31.969937 -15.218336 54.724954 -0.000004 -0.000011 3.350418 -8.189146 6.261730 -15.233320 -0.000029 0.000000 3.756502 -5.506900 4.583280 -10.473301 -0.000002 -0.000063 3.147326 0.000001 0.000003 0.000003 -0.086761 -2.345226 10.030884 -7.414423 6.782367 16.248901 -0.000013 -0.000005 4.061076 0.497859 0.000005 0.000029 -0.000010 -0.000026 3.248861 -0.002529 -0.000004 -0.000012 0.000010 -0.000006 2.639726 0.000000 0.000001 0.000000 0.104080 -0.006756 9.502964 -4.532539 -5.430876 11.198713 -0.000032 -0.000025 4.568749 0.490673 -4.349817 0.227578 0.000004 -0.000011 3.654980 -0.009821 -4.327235 0.227694 0.000008 -0.000014 2.741238 0.000001 -0.000002 0.000001 0.086769 2.267485 8.921715 -3.604833 -44.562890 17.488850 0.000006 0.000029 4.061092 -0.430395 -30.658684 -2.077775 -0.000007 0.000029 3.654980 0.569611 -30.658735 -2.077766 0.000011 0.000030 2.741220 -0.000004 0.000001 -0.000003 -0.173500 4.467218 7.976989 9.539524 -66.280921 -1.549884 0.000023 0.000009 3.350388 2.550360 -44.622756 -11.060032 0.000029 0.000019 2.842766 4.550366 -44.622773 -11.060040 -0.000004 0.000009 2.639679 -0.000002 0.000001 -0.000001 -0.000014 -0.000003 -0.000038 -0.000000 0.000001 -0.000002 0.000015 0.000008 -0.000017 -0.000002 0.000001 0.000001 2.625403 -0.000004 11.175224 -8.390324 87.417030 0.037349 0.000008 -0.000015 10.813644 25.492597 48.014748 16.519388 -0.000065 -0.000015 28.724779 -15.429198 1.097358 63.744209 0.644400 0.328876 25.716179 8.542475 0.960325 -17.603768 2.867332 -2.944305 3.959549 -32.576925 13.119665 58.268904 -0.000036 -0.000086 3.350437 3.715585 -3.276757 -7.187371 -0.000047 0.000004 3.756523 2.536300 -2.325506 -4.968178 -0.000029 -0.000000 3.100031 0.000000 0.000000 0.000001 0.086739 -2.345276 10.030891 168.055165 197.024907 206.271658 -0.000078 -0.000009 4.061094 0.547217 -0.000012 -0.000181 -0.000024 0.000015 3.248894 0.044288 -0.000002 -0.000182 -0.000035 0.000006 2.639708 -0.000001 0.000000 0.000000 -0.104109 -0.006748 9.502922 -5.335827 -9.782089 16.499294 -0.000036 -0.000059 4.568746 0.537052 0.000366 0.050953 -0.000032 -0.000031 3.654995 0.031805 -0.000013 0.043634 -0.000033 -0.000002 2.741273 0.000001 0.000003 0.000000 -0.086798 2.267466 8.921734 5.661895 6.020215 8.563146 -0.000015 0.000005 4.061096 -0.987851 4.733674 0.290186 -0.000042 -0.000013 3.654989 0.009297 4.733295 0.289919 -0.000019 -0.000012 2.741266 0.000001 0.000001 -0.000002 0.173477 4.467155 7.977030 17.236809 19.123538 1.694495 -0.000017 -0.000003 3.350412 -1.696566 13.257142 2.624483 -0.000043 -0.000001 2.842768 0.296729 13.257372 2.622952 -0.000033 0.000074 2.639704 -0.000001 0.000000 -0.000001 -0.000020 0.000016 -0.000004 -0.000002 0.000003 -0.000002 0.000032 0.000000 -0.000002 -0.000002 0.000001 -0.000001 -11.289927 -0.000029 -0.000023 -8.169278 14.467642 5.245017 0.000017 0.000050 -38.200317 0.420846 -0.230430 28.703457 -0.000045 -0.000002 -39.900867 -28.254423 1.714334 26.867215 -0.000037 -15.261806 0.000034 0.045414 -3.263917 -24.633789 -0.000009 -7.370661 0.000000 -0.000001 -0.000002 0.000000 0.000001 -0.000004 -0.000001 0.000001 0.000001 0.000001 0.000019 0.000071 -0.000003 -0.000001 -0.000001 -0.000003 11.315666 -0.000015 -0.000012 -17.859056 -2.129279 -4.168458 0.000005 0.000011 -38.200321 0.494385 -0.231882 25.126435 -0.000017 0.000061 -39.900860 12.512508 2.415565 14.847930 0.000026 -15.261683 0.000004 -1.543761 -0.451710 -19.754845 -0.000013 -7.539994 -0.000001 0.000003 -0.000000 -0.000000 0.000002 0.000067 0.000001 -0.000001 0.000000 0.000002 -0.000005 0.000062 -0.000008 -0.000000 0.000000 -0.000000 
-8.688995 0.872131 87.656479 30.291909 0.988732 -8.420991 0.000014 2.080097 8.814245 -0.204314 -4.771675 5.661941 0.000006 0.000024 8.844148 1.080712 -2.951071 1.254369 0.000005 -0.000028 11.682266 7.087151 7.645744 0.535279 0.000008 -0.000003 11.746691 2.353417 10.744279 -0.772377 0.000011 0.000010 17.658241 -22.583279 -6.112833 14.419952 -0.000013 -0.000018 5.101522 -23.115324 6.479954 -2.646946 -0.000008 0.000000 5.101512 -3.806050 -1.243496 -18.247072 -0.000006 -0.000002 11.655078 0.000000 0.000000 -0.000000 -2.625385 0.000029 11.175228 11.102110 -80.608854 -0.162895 0.000000 0.000015 10.434686 26.932810 -0.236049 18.664409 0.000008 0.000000 29.628437 27.906155 1.245008 71.856186 0.000000 0.000053 22.857559 -30.883715 8.051760 -15.909797 -2.867271 -2.944290 3.959518 32.008124 -15.052178 54.995447 0.000004 -0.000072 3.350426 -7.829734 6.054719 -14.605065 0.000010 -0.000004 3.756510 -5.270493 4.419935 -10.045189 0.000013 -0.000062 3.147326 -0.000001 -0.000000 -0.000002 -0.086727 -2.345230 10.030914 -7.295807 7.643230 14.844417 -0.000007 0.000021 4.061080 0.498759 -0.027988 -0.000207 -0.000009 0.000018 3.248870 -0.002104 0.015569 -0.000012 0.000002 -0.000002 2.639699 0.000000 -0.000000 -0.000002 0.104124 -0.006769 9.502951 -4.247950 -3.874866 9.777260 0.000002 0.000015 4.568735 0.492501 -3.167685 0.166305 0.000001 0.000025 3.655014 -0.008710 -3.166891 0.166212 -0.000003 0.000008 2.741242 -0.000000 0.000000 0.000000 0.086792 2.267453 8.921715 -2.930669 -41.727900 15.628403 0.000000 0.000018 4.061100 -0.507839 -28.731771 -1.921474 0.000007 -0.000024 3.654984 0.492164 -28.731775 -1.921451 -0.000029 0.000011 2.741239 -0.000002 0.000002 -0.000002 -0.173508 4.467270 7.977007 9.208432 -64.321906 -1.687504 0.000031 -0.000024 3.350403 2.224675 -43.397724 -10.591301 -0.000019 -0.000013 2.842751 4.224645 -43.397772 -10.591284 -0.000001 -0.000013 2.639695 0.000002 -0.000000 0.000003 0.000015 0.000013 -0.000006 -0.000000 -0.000002 0.000002 -0.000014 0.000007 -0.000007 -0.000001 -0.000000 0.000000 2.625424 -0.000022 11.175227 -8.327707 87.356460 0.039752 0.000008 0.000009 10.813614 23.157739 48.749871 14.277342 -0.000042 -0.000023 28.724764 -15.597451 1.129955 63.313839 0.644366 0.328911 25.716179 9.381675 0.582130 -17.421963 2.867287 -2.944290 3.959518 -32.577004 13.119603 58.269286 -0.000013 -0.000088 3.350437 3.715630 -3.276703 -7.188001 -0.000071 0.000028 3.756506 2.536251 -2.325428 -4.967939 -0.000051 -0.000004 3.100015 0.000000 -0.000000 0.000000 0.086697 -2.345276 10.030891 168.058539 196.956141 205.876655 0.000003 -0.000022 4.061120 0.550342 -0.000009 -0.000187 -0.000027 -0.000026 3.248887 0.047239 0.000004 -0.000217 -0.000076 0.000025 2.639730 -0.000005 -0.000001 0.000000 -0.104107 -0.006771 9.502899 -5.344712 -9.817927 16.180050 0.000005 -0.000079 4.568762 0.540113 0.000385 0.055088 0.000006 -0.000065 3.654988 0.034443 -0.000007 0.047193 -0.000019 -0.000007 2.741254 0.000002 0.000002 -0.000001 -0.086834 2.267437 8.921715 5.637706 5.897165 8.184335 -0.000001 -0.000011 4.061106 -0.988465 4.625747 0.283533 -0.000038 0.000072 3.655003 0.008038 4.625361 0.283234 -0.000056 0.000002 2.741268 0.000001 0.000003 -0.000001 0.173470 4.467182 7.976997 17.206379 19.091437 1.313129 -0.000050 0.000075 3.350454 -1.698745 13.175681 2.608112 -0.000030 -0.000014 2.842770 0.301260 13.175660 2.608098 -0.000059 -0.000001 2.639720 0.000001 0.000001 -0.000002 -0.000014 0.000010 -0.000009 0.000000 0.000000 -0.000002 -0.000010 0.000007 -0.000003 -0.000001 -0.000001 0.000001 -11.289904 -0.000059 -0.000008 -6.730554 13.683161 5.004715 0.000024 0.000018 -38.200314 0.297876 -0.171418 29.920395 0.000040 -0.000019 -39.900883 -26.842737 0.748313 27.122166 -0.000006 -15.261803 0.000048 0.305205 -3.587123 -24.967350 0.000000 -7.370667 0.000000 0.000000 0.000001 0.000000 0.000002 0.000004 0.000000 -0.000001 0.000003 0.000000 0.000066 0.000011 -0.000012 -0.000001 -0.000000 -0.000002 11.315658 -0.000082 0.000003 -18.059758 -1.955318 -4.049841 -0.000014 0.000027 -38.200321 0.472839 -0.214503 24.400219 -0.000015 -0.000002 -39.900833 12.112225 1.913953 15.160909 0.000037 -15.261707 0.000014 -1.473332 -0.450116 -19.794595 -0.000008 -7.539981 0.000001 0.000000 -0.000000 -0.000001 0.000000 0.000002 0.000001 -0.000000 0.000000 0.000004 -0.000002 -0.000004 -0.000001 0.000001 -0.000001 0.000002 
